<svg xmlns="http://www.w3.org/2000/svg" version="1.1" xmlns:xlink="http://www.w3.org/1999/xlink" xmlns:svgjs="http://svgjs.dev/svgjs" viewBox="0 0 1422 800"><g shape-rendering="crispEdges" stroke-linejoin="round" fill="none" stroke-width="1" stroke="hsl(0, 0%, 27%)"><polygon points="1422,0 1422,200 1066.5,200"></polygon><polygon points="1066.5,100 888.75,100 888.75,0"></polygon><polygon points="888.75,100 888.75,0 711,100"></polygon><polygon points="888.75,100 888.75,150 799.875,150"></polygon><polygon points="799.875,100 799.875,150 711,150"></polygon><polygon points="799.875,200 711,150 799.875,150"></polygon><polygon points="888.75,200 799.875,150 888.75,150"></polygon><polygon points="1066.5,100 1066.5,200 888.75,200"></polygon><polygon points="1066.5,200 977.625,250 977.625,200"></polygon><polygon points="888.75,250 977.625,250 888.75,200"></polygon><polygon points="977.625,300 977.625,250 888.75,250"></polygon><polygon points="1066.5,250 1066.5,300 977.625,300"></polygon><polygon points="711,300 888.75,300 888.75,200"></polygon><polygon points="799.875,300 888.75,350 799.875,350"></polygon><polygon points="711,300 799.875,350 711,350"></polygon><polygon points="799.875,350 799.875,400 711,400"></polygon><polygon points="888.75,350 799.875,400 888.75,400"></polygon><polygon points="888.75,300 1066.5,400 888.75,400"></polygon><polygon points="1422,200 1244.25,300 1422,300"></polygon><polygon points="1066.5,200 1066.5,300 1244.25,200"></polygon><polygon points="1244.25,300 1066.5,300 1244.25,400"></polygon><polygon points="1244.25,400 1422,300 1422,400"></polygon><polygon points="533.25,100 711,100 711,0"></polygon><polygon points="533.25,0 533.25,100 355.5,0"></polygon><polygon points="533.25,200 533.25,100 355.5,200"></polygon><polygon points="533.25,200 711,200 711,100"></polygon><polygon points="355.5,0 0,200 0,0"></polygon><polygon points="355.5,300 355.5,200 177.75,300"></polygon><polygon points="0,200 177.75,200 0,300"></polygon><polygon points="0,400 177.75,300 0,300"></polygon><polygon points="177.75,400 355.5,300 177.75,300"></polygon><polygon points="711,200 533.25,200 533.25,300"></polygon><polygon points="533.25,300 355.5,200 533.25,200"></polygon><polygon points="444.375,300 444.375,350 533.25,350"></polygon><polygon points="444.375,350 444.375,300 355.5,350"></polygon><polygon points="444.375,400 355.5,400 444.375,350"></polygon><polygon points="533.25,350 444.375,350 533.25,400"></polygon><polygon points="711,300 622.125,350 711,350"></polygon><polygon points="622.125,300 533.25,350 533.25,300"></polygon><polygon points="533.25,400 533.25,350 622.125,400"></polygon><polygon points="622.125,400 622.125,350 711,350"></polygon><polygon points="533.25,500 711,400 711,500"></polygon><polygon points="533.25,400 533.25,450 444.375,400"></polygon><polygon points="355.5,450 444.375,450 444.375,400"></polygon><polygon points="444.375,450 355.5,500 355.5,450"></polygon><polygon points="533.25,500 533.25,450 444.375,450"></polygon><polygon points="355.5,600 533.25,600 355.5,500"></polygon><polygon points="711,550 711,500 622.125,500"></polygon><polygon points="622.125,500 533.25,500 533.25,550"></polygon><polygon points="622.125,550 533.25,550 533.25,600"></polygon><polygon points="711,550 622.125,600 622.125,550"></polygon><polygon points="177.75,500 355.5,400 355.5,500"></polygon><polygon points="177.75,500 177.75,400 0,500"></polygon><polygon points="0,600 177.75,600 0,500"></polygon><polygon points="355.5,500 355.5,600 177.75,500"></polygon><polygon points="355.5,600 355.5,650 266.625,600"></polygon><polygon points="177.75,600 266.625,600 266.625,650"></polygon><polygon points="266.625,700 266.625,650 177.75,650"></polygon><polygon points="355.5,700 355.5,650 266.625,700"></polygon><polygon points="177.75,600 177.75,700 0,600"></polygon><polygon points="177.75,700 177.75,800 0,800"></polygon><polygon points="355.5,800 355.5,700 177.75,700"></polygon><polygon points="711,650 622.125,600 711,600"></polygon><polygon points="622.125,600 622.125,650 533.25,650"></polygon><polygon points="533.25,700 622.125,650 622.125,700"></polygon><polygon points="622.125,650 711,650 711,700"></polygon><polygon points="533.25,600 355.5,700 355.5,600"></polygon><polygon points="355.5,700 355.5,800 533.25,800"></polygon><polygon points="711,800 711,700 533.25,800"></polygon><polygon points="1422,400 1422,500 1244.25,500"></polygon><polygon points="1244.25,450 1244.25,400 1155.375,450"></polygon><polygon points="1155.375,400 1155.375,450 1066.5,400"></polygon><polygon points="1066.5,500 1155.375,450 1155.375,500"></polygon><polygon points="1244.25,450 1244.25,500 1155.375,500"></polygon><polygon points="1244.25,500 1244.25,600 1066.5,600"></polygon><polygon points="1422,600 1422,500 1244.25,500"></polygon><polygon points="1066.5,400 888.75,500 888.75,400"></polygon><polygon points="799.875,400 888.75,450 888.75,400"></polygon><polygon points="711,400 799.875,450 799.875,400"></polygon><polygon points="711,500 711,450 799.875,450"></polygon><polygon points="888.75,450 799.875,500 888.75,500"></polygon><polygon points="888.75,500 888.75,600 711,500"></polygon><polygon points="1066.5,600 1066.5,500 888.75,600"></polygon><polygon points="888.75,700 888.75,600 1066.5,700"></polygon><polygon points="888.75,700 711,600 711,700"></polygon><polygon points="711,700 888.75,800 888.75,700"></polygon><polygon points="888.75,700 1066.5,800 888.75,800"></polygon><polygon points="1422,600 1422,800 1066.5,600"></polygon></g><g fill="hsl(220, 62%, 45%)" stroke-width="3" stroke="hsl(220, 43%, 13%)"></g></svg>